<svg width="100" height="100" viewBox="0 0 100 100" fill="none" xmlns="http://www.w3.org/2000/svg">
<g clip-path="url(#clip0_2013_277)">
<path d="M25.0038 34.0376C27.4815 34.0376 29.4903 36.0457 29.4903 38.5237C29.4903 41.002 27.4815 43.0101 25.0038 43.0101H4.48658C2.00862 43.0101 -1.52588e-05 41.002 -1.52588e-05 38.5237C-1.52588e-05 36.0457 2.00862 34.0376 4.48642 34.0376H25.0038Z" fill="#576F75"/>
<path d="M22.9416 45.7934C25.4197 45.7934 27.4283 47.8019 27.4283 50.2798C27.4283 52.7578 25.4197 54.7663 22.9416 54.7663H11.2639C10.2679 54.7698 9.45269 55.5577 9.41456 56.5437V62.3911C9.41456 64.8687 7.40593 66.8772 4.92861 66.8772C2.45065 66.8772 0.442017 64.8687 0.442017 62.3911V52.4399C0.442017 48.7693 3.41757 45.7932 7.0883 45.7932L22.9416 45.7934ZM31.5277 37.5782C31.5277 35.1006 33.5363 33.0918 36.0141 33.0918C38.4922 33.0918 40.5005 35.1006 40.5005 37.5782V62.4225C40.5005 64.9004 38.4924 66.9089 36.0141 66.9089C33.5365 66.9089 31.5277 64.9002 31.5277 62.4225V37.5782ZM86.7457 58.0103L88.5487 58.0058C88.7256 58.0056 88.8952 57.9353 89.0203 57.8101C89.1454 57.685 89.2158 57.5154 89.2159 57.3384C89.2186 57.2508 89.2026 57.1636 89.1687 57.0827L82.4648 45.8173L71.9917 63.9519C71.1826 65.3542 69.7299 66.1539 68.2222 66.1942C68.1773 66.2005 68.1319 66.2037 68.0865 66.2037H51.0423C47.3714 66.2037 44.3957 63.2278 44.3957 59.5572V37.5786C44.3957 35.1008 46.4045 33.092 48.8821 33.092C51.3596 33.092 53.3685 35.1008 53.3685 37.5784V55.381C53.3718 56.3775 54.1595 57.1932 55.1461 57.2303H64.6806C64.9258 57.1549 65.6758 56.9 65.9042 56.545L77.8799 35.814C78.7887 34.2537 80.4791 33.2033 82.4139 33.2033C84.3496 33.2033 86.0403 34.2553 86.9451 35.8189L98.6146 55.4112C99.5149 56.5817 100.002 58.0174 99.9998 59.4941C99.9998 63.1997 96.9958 66.2034 93.2908 66.2034H79.6882C77.4248 66.2034 75.5916 64.3691 75.5916 62.1063C75.5916 59.8443 77.425 58.0103 79.6882 58.0103H86.7457Z" fill="#576F75"/>
</g>
<defs>
<clipPath id="clip0_2013_277">
<rect width="100" height="100" fill="white"/>
</clipPath>
</defs>
</svg>
